<?xml version="1.0" encoding="UTF-8" standalone="no"?>
<!DOCTYPE svg PUBLIC "-//W3C//DTD SVG 1.1//EN" "http://www.w3.org/Graphics/SVG/1.1/DTD/svg11.dtd">
<svg width="100%" height="100%" viewBox="0 0 120 120" version="1.1" xmlns="http://www.w3.org/2000/svg" xmlns:xlink="http://www.w3.org/1999/xlink" xml:space="preserve" xmlns:serif="http://www.serif.com/" style="fill-rule:evenodd;clip-rule:evenodd;">
    <circle cx="60" cy="60" r="56" style="fill:white;stroke:rgb(232,232,232);stroke-width:2px;"/>
    <g transform="matrix(1,0,0,1,76.9869,28.6126)">
        <path d="M0,6C-3,0 -9,0 -12,3C-15,6 -15,12 -12,15L0,24L12,15C15,12 15,6 12,3C9,0 3,0 0,6Z" style="fill:url(#_Linear1);fill-rule:nonzero;"/>
    </g>
    <g transform="matrix(1,0,0,1,16.2904,67.6157)">
        <path d="M0,8L8,8L10,4L12,12L14,2L16,8L20,8L25,6L30,10L35,8L40,5L45,9L55,7L60,9L65,8L70,6L75,10L80,8L90,8" style="fill:none;fill-rule:nonzero;stroke:url(#_Linear2);stroke-width:1.5px;stroke-linejoin:round;"/>
    </g>
    <defs>
        <linearGradient id="_Linear1" x1="0" y1="0" x2="1" y2="0" gradientUnits="userSpaceOnUse" gradientTransform="matrix(28.5,22.9706,-22.9706,28.5,-14.25,1.02944)"><stop offset="0" style="stop-color:rgb(231,76,60);stop-opacity:1"/><stop offset="1" style="stop-color:rgb(192,57,43);stop-opacity:1"/></linearGradient>
        <linearGradient id="_Linear2" x1="0" y1="0" x2="1" y2="0" gradientUnits="userSpaceOnUse" gradientTransform="matrix(90,0,0,90,0,2)"><stop offset="0" style="stop-color:rgb(52,152,219);stop-opacity:1"/><stop offset="1" style="stop-color:rgb(41,128,185);stop-opacity:1"/></linearGradient>
    </defs>
</svg>
